# AST/ASF file generated using VICON BodyLanguage
# -----------------------------------------------
:version 1.10
:name VICON
:units
  mass 1.0
  length 0.45
  angle deg
:documentation
   .ast/.asf automatically generated from VICON data using
   VICON BodyBuilder and BodyLanguage model FoxedUp or BRILLIANT.MOD
:root
   order TX TY TZ RX RY RZ
   axis XYZ
   position 0 0 0  
   orientation 0 0 0 
:bonedata
  begin
     id 1 
     name lhipjoint
     direction 0.645422 -0.672597 0.361999 
     length 2.39934 
     axis 0 0 0  XYZ
  end
  begin
     id 2 
     name lfemur
     direction 0.34202 -0.939693 0  
     length 6.58112  
     axis 0 0 20  XYZ
    dof rx ry rz
    limits (-160.0 20.0)
           (-70.0 70.0)
           (-60.0 70.0)
  end
  begin
     id 3 
     name ltibia
     direction 0.34202 -0.939693 0   
     length 7.02673   
     axis 0 0 20   XYZ
    dof rx
    limits (-10.0 170.0)
  end
  begin
     id 4 
     name lfoot
     direction 0.0835106 -0.229444 0.969733   
     length 2.08772   
     axis -90 7.62852e-016 20   XYZ
    dof rx rz
    limits (-45.0 90.0)
           (-70.0 20.0)
  end
  begin
     id 5 
     name ltoes
     direction 1.5358e-011 -4.21925e-011 1   
     length 1.04844   
     axis -90 7.62852e-016 20   XYZ
    dof rx
    limits (-90.0 20.0)
  end
  begin
     id 6 
     name rhipjoint
     direction -0.644959 -0.672941 0.362185   
     length 2.39812  
     axis 0 0 0  XYZ 
  end
  begin
     id 7 
     name rfemur
     direction -0.34202 -0.939693 0   
     length 6.67015   
     axis 0 0 -20   XYZ
    dof rx ry rz
    limits (-160.0 20.0)
           (-70.0 70.0)
           (-70.0 60.0)
  end
  begin
     id 8 
     name rtibia
     direction -0.34202 -0.939693 0   
     length 7.35735   
     axis 0 0 -20   XYZ
    dof rx
    limits (-10.0 170.0)
 end
 begin
     id 9 
     name rfoot
     direction -0.0670769 -0.184292 0.98058   
     length 2.25469  
     axis -90 -7.62852e-016 -20   XYZ
    dof rx rz
    limits (-45.0 90.0)
           (-20.0 70.0)
  end
  begin
     id 10 
     name rtoes
     direction -1.53575e-011 -4.21908e-011 1   
     length 1.13399   
     axis -90 -7.62852e-016 -20   XYZ
    dof rx
    limits (-90.0 20.0)
  end
  begin
     id 11 
     name lowerback
     direction -0.0188328 0.993434 -0.112847   
     length 2.27656   
     axis 0 0 0   XYZ
    dof rx ry rz
    limits (-20.0 45.0)
           (-30.0 30.0)
           (-30.0 30.0)
  end
  begin
     id 12 
     name upperback
     direction 0.00983139 0.998968 -0.04435   
     length 2.28631   
     axis 0 0 0   XYZ
    dof rx ry rz
    limits (-20.0 45.0)
           (-30.0 30.0)
           (-30.0 30.0)
  end
  begin
     id 13 
     name thorax
     direction 0.0177718 0.999807 0.00833073   
     length 2.30999   
     axis 0 0 0   XYZ
    dof rx ry rz
    limits (-20.0 45.0)
           (-30.0 30.0)
           (-30.0 30.0)
  end
  begin
     id 14 
     name lowerneck
     direction -0.0835025 0.993181 0.0813558   
     length 1.39447   
     axis 0 0 0   XYZ
    dof rx ry rz
    limits (-20.0 45.0)
           (-30.0 30.0)
           (-30.0 30.0)
  end
  begin
     id 15 
     name upperneck
     direction 0.210059 0.976535 0.0474817   
     length 1.39882   
     axis 0 0 0   XYZ
    dof rx ry rz
    limits (-20.0 45.0)
           (-30.0 30.0)
           (-30.0 30.0)
  end
  begin
     id 16
     name head
     direction 0.0780891 0.996944 -0.00207154  
     length 1.41828  
     axis 0 0 0   XYZ
    dof rx ry rz
    limits (-20.0 45.0)
           (-30.0 30.0)
           (-30.0 30.0)
  end
  begin
     id 17 
     name lclavicle
     direction 0.982414 0.166355 -0.0847829  
     length 3.57922  
     axis 0 0 0   XYZ
    dof ry rz
    limits (-20.0 10.0)
           (0.0 20.0)
  end
  begin
     id 18 
     name lhumerus
     direction 1 -4.48975e-011 5.47647e-028   
     length 4.76405   
     axis -180 -30 -90   XYZ
    dof rx ry rz
    limits (-60.0 90.0)
           (-90.0 90.0)
           (-90.0 90.0)
  end
  begin
     id 19
     name lradius
     direction 1 -4.48949e-011 -8.32142e-027   
     length 3.13759   
     axis -180 -30 -90   XYZ
    dof rx
    limits (-10.0 170.0)
  end
  begin
     id 20
     name lwrist
     direction 1 -4.48978e-011 -1.32705e-026   
     length 1.56879   
     axis 9.60836e-015 90 90   XYZ
    dof ry
    limits (-180.0 0.0)
 end
  begin
     id 21 
     name lhand
     direction 1 -4.48975e-011 -2.65409e-026   
     length 0.732262   
     axis 1.69354e-014 90 90   XYZ
    dof rx rz
    limits (-90.0 90.0)
           (-45.0 45.0)
  end
  begin
     id 22 
     name lfingers
     direction 1 -4.48923e-011 -5.30819e-026   
     length 0.590368   
     axis 3.38708e-014 90 90   XYZ
    dof rx
    limits (0.0 90.0)
  end
  begin
     id 23
     name lthumb
     direction 0.707107 -6.34914e-011 0.707107   
     length 0.847654   
     axis -90 45 2.85299e-015   XYZ
    dof rx rz
    limits (-45.0 45.0)
           (-45.0 45.0)
  end
  begin
     id 24 
     name rclavicle
     direction -0.963658 0.245183 -0.106063   
     length 3.43472  
     axis 0 0 0   XYZ 
    dof ry rz
    limits (-10.0 20.0)
           (-20.0 0.0)
  end
  begin
     id 25 
     name rhumerus
     direction -1 -4.48963e-011 -1.64784e-027  
     length 5.10161   
     axis -180 30 90   XYZ
    dof rx ry rz
    limits (-90.0 60.0)
           (-90.0 90.0)
           (-90.0 90.0)
  end
  begin
     id 26 
     name rradius
     direction -1 -4.48969e-011 -2.87943e-027   
     length 3.23267   
     axis -180 30 90   XYZ
    dof rx
    limits (-10.0 170.0)
  end
  begin
     id 27 
     name rwrist
     direction -1 -4.48982e-011 -1.32705e-026   
     length 1.61633   
     axis 9.60836e-015 -90 -90   XYZ
    dof ry
    limits (-180.0 0.0)
  end
  begin
     id 28
     name rhand
     direction -1 -4.48963e-011 -2.65409e-026   
     length 0.702   
     axis 1.69354e-014 -90 -90   XYZ
    dof rx rz
    limits (-90.0 90.0)
           (-45.0 45.0)
  end
  begin
     id 29
     name rfingers
     direction -1 -4.48934e-011 -5.30819e-026   
     length 0.565971   
     axis 3.38708e-014 -90 -90   XYZ
    dof rx
    limits (0.0 90.0)
  end
  begin
     id 30
     name rthumb
     direction -0.707107 -6.34908e-011 0.707107   
     length 0.812624   
     axis -90 -45 -2.85299e-015   XYZ
    dof rx rz
    limits (-45.0 45.0)
           (-45.0 45.0)
  end
:hierarchy
  begin
    root lhipjoint rhipjoint lowerback
    lhipjoint lfemur
    lfemur ltibia
    ltibia lfoot
    lfoot ltoes
    rhipjoint rfemur
    rfemur rtibia
    rtibia rfoot
    rfoot rtoes
    lowerback upperback
    upperback thorax
    thorax lowerneck lclavicle rclavicle
    lowerneck upperneck
    upperneck head
    lclavicle lhumerus
    lhumerus lradius
    lradius lwrist
    lwrist lhand lthumb
    lhand lfingers
    rclavicle rhumerus
    rhumerus rradius
    rradius rwrist
    rwrist rhand rthumb
    rhand rfingers
  end

#!OML:ASF \\sashay\E\basketball\basketball\Project 1\Capture day 1\Session 1\Subject.ASF
:FULLY-SPECIFIED
:DEGREES
130
root -11.7511 13.7006 -5.07145 -174.933 63.8004 -199.442
lowerback 23.1427 1.42405 -4.8336
upperback 9.92076 1.87957 -2.7057
thorax -2.01961 1.33156 -0.627309
lowerneck 2.21871 -11.3641 -17.2097
upperneck -30.7087 -10.227 28.4021
head -6.45949 -5.19069 13.5297
rclavicle 2.62396e-014 1.23246e-014
rhumerus -16.7431 -8.71802 -73.2269
rradius 48.5613
rwrist -25.8479
rhand -32.7 32.4746
rfingers 7.12502
rthumb -5.92458 2.57747
lclavicle 2.62396e-014 1.23246e-014
lhumerus -1.81401 -2.66009 79.5303
lradius 102.682
lwrist 38.3262
lhand -10.8065 37.3451
lfingers 7.12502
lthumb 15.2069 66.7662
rfemur -52.3008 -11.509 43.7267
rtibia 67.459
rfoot -31.4359 -17.5844
rtoes -1.77233
lfemur -14.9329 11.6787 -10.4871
ltibia 97.1716
lfoot -1.49139 3.76363
ltoes -31.7865
131
root -11.326 13.7211 -5.24626 -172.86 64.2215 -196.845
lowerback 23.1909 1.88326 -3.43597
upperback 9.84945 2.72567 -2.36757
thorax -2.11921 1.76134 -1.26499
lowerneck 2.92166 -11.8269 -17.4585
upperneck -31.3208 -10.9576 28.6038
head -6.55494 -5.58157 13.7157
rclavicle 1.82882e-014 2.90226e-014
rhumerus -17.1733 -8.75418 -73.0476
rradius 49.7605
rwrist -26.585
rhand -32.5426 33.0689
rfingers 7.12502
rthumb -5.77259 3.16749
lclavicle 1.82882e-014 2.90226e-014
lhumerus -3.39011 -2.75642 80.3868
lradius 105.735
lwrist 36.754
lhand -11.3509 36.9086
lfingers 7.12502
lthumb 14.6824 66.3687
rfemur -49.3157 -12.4167 44.4451
rtibia 66.6316
rfoot -32.0454 -17.1347
rtoes -5.48717
lfemur -18.5749 11.793 -8.8716
ltibia 101.374
lfoot -2.08067 3.3981
ltoes -32.1304
132
root -10.8836 13.7505 -5.41573 -171.32 64.4869 -194.685
lowerback 23.3966 2.38655 -2.34748
upperback 9.76576 3.57245 -2.02285
thorax -2.2865 2.18641 -1.73264
lowerneck 3.67413 -12.3325 -17.7798
upperneck -31.8321 -11.8001 28.8403
head -6.58434 -6.03362 13.9067
rclavicle -2.38542e-015 -2.78299e-014
rhumerus -17.8214 -8.62808 -72.8072
rradius 50.8799
rwrist -27.599
rhand -32.5295 34.0499
rfingers 7.12502
rthumb -5.75994 4.14817
lclavicle -2.38542e-015 -2.78299e-014
lhumerus -4.98687 -3.14802 81.2727
lradius 108.144
lwrist 34.1243
lhand -12.3575 35.1302
lfingers 7.12502
lthumb 13.7125 64.6584
rfemur -46.1528 -13.6562 44.8837
rtibia 65.6322
rfoot -32.6561 -16.4879
rtoes -8.36288
lfemur -22.0307 11.5373 -7.53782
ltibia 104.787
lfoot -2.99454 2.83447
ltoes -32.6427
133
root -10.4627 13.7558 -5.58996 -169.782 64.8568 -193.354
lowerback 22.8905 2.99293 -1.55646
upperback 9.45461 4.45778 -1.88028
thorax -2.32863 2.60739 -2.22263
lowerneck 4.51325 -12.8946 -17.9304
upperneck -32.3139 -12.7415 29.0459
head -6.60966 -6.55866 14.047
rclavicle 4.77083e-015 9.46215e-014
rhumerus -18.7232 -8.46856 -72.6637
rradius 52.0021
rwrist -28.5567
rhand -32.6573 34.9259
rfingers 7.12502
rthumb -5.88339 5.0276
lclavicle 4.77083e-015 9.46215e-014
lhumerus -6.50501 -3.48751 82.4556
lradius 109.84
lwrist 31.3721
lhand -9.50161 33.3151
lfingers 7.12502
lthumb 16.4635 62.6365
rfemur -43.6624 -14.6091 45.0161
rtibia 64.3719
rfoot -32.159 -17.3067
rtoes -15.316
lfemur -26.6066 11.085 -7.15943
ltibia 107.876
lfoot -4.10711 2.56553
ltoes -31.3141
134
root -10.0154 13.7949 -5.74749 -168.855 65.3146 -192.881
lowerback 22.2245 3.75525 -1.47293
upperback 9.08912 5.39428 -1.69647
thorax -2.38572 3.03142 -2.26388
lowerneck 5.30247 -13.4936 -18.2118
upperneck -32.6912 -13.7747 29.2808
head -6.54818 -7.12288 14.1846
rclavicle -7.95139e-014 -7.15625e-015
rhumerus -19.7564 -7.99589 -72.3816
rradius 53.1211
rwrist -29.4099
rhand -32.9461 35.6407
rfingers 7.12502
rthumb -6.16213 5.7503
lclavicle -7.95139e-014 -7.15625e-015
lhumerus -8.12093 -3.8577 83.8321
lradius 111.473
lwrist 30.062
lhand -10.8847 34.0268
lfingers 7.12502
lthumb 15.1315 63.4536
rfemur -41.4992 -15.592 44.761
rtibia 63.0992
rfoot -32.7173 -15.1371
rtoes -14.083
lfemur -31.3634 10.3898 -7.41571
ltibia 110.079
lfoot -4.23248 2.9685
ltoes -29.1445
135
root -9.55098 13.845 -5.90338 -169.198 65.6201 -193.045
lowerback 22.2724 4.48802 -1.70903
upperback 8.85566 6.25237 -1.49541
thorax -2.68622 3.4251 -2.14085
lowerneck 6.12383 -14.0683 -18.642
upperneck -33.05 -14.8045 29.5606
head -6.46111 -7.6764 14.3576
rclavicle -9.85972e-014 7.63333e-014
rhumerus -20.946 -7.38215 -72.0772
rradius 54.0616
rwrist -30.0998
rhand -33.1512 36.6646
rfingers 7.12502
rthumb -6.36017 6.78005
lclavicle -9.85972e-014 7.63333e-014
lhumerus -9.87547 -4.35818 85.2256
lradius 113.162
lwrist 30.6411
lhand -11.6916 34.4946
lfingers 7.12502
lthumb 14.3542 63.9783
rfemur -38.2492 -16.8343 43.8258
rtibia 61.4589
rfoot -33.3207 -12.5311
rtoes -11.6039
lfemur -35.1939 9.19856 -7.94781
ltibia 111.438
lfoot -4.17576 3.75822
ltoes -27.4533
136
root -9.06298 13.9001 -6.05202 -169.889 65.7865 -193.445
lowerback 22.3359 5.2321 -2.00961
upperback 8.65916 7.11743 -1.40417
thorax -2.95642 3.82792 -2.10677
lowerneck 7.22093 -14.5743 -18.7719
upperneck -33.6902 -15.7491 29.5702
head -6.60699 -8.18289 14.467
rclavicle 1.59028e-014 -2.54444e-014
rhumerus -22.3143 -7.2911 -72.0404
rradius 54.8233
rwrist -30.0088
rhand -33.1795 37.7828
rfingers 7.12502
rthumb -6.3875 7.89913
lclavicle 1.59028e-014 -2.54444e-014
lhumerus -11.5904 -5.20546 86.4497
lradius 114.738
lwrist 32.6694
lhand -11.0916 34.5412
lfingers 7.12502
lthumb 14.9323 63.9829
rfemur -34.5028 -17.9846 42.6617
rtibia 59.3967
rfoot -33.6051 -10.2646
rtoes -9.91405
lfemur -38.5945 7.78712 -8.4719
ltibia 111.999
lfoot -3.64634 5.03605
ltoes -23.6818
137
root -8.59518 13.9468 -6.21234 -169.339 66.5118 -193.321
lowerback 21.6216 6.1229 -2.15183
upperback 8.27909 8.18056 -1.43446
thorax -3.00774 4.31699 -2.26532
lowerneck 7.64513 -15.5707 -19.3689
upperneck -31.7792 -17.7266 30.1953
head -5.40328 -9.36765 14.251
rclavicle 3.49861e-014 4.13472e-014
rhumerus -23.713 -7.52323 -72.1415
rradius 55.423
rwrist -28.9463
rhand -32.9706 37.9795
rfingers 7.12502
rthumb -6.18585 8.08983
lclavicle 3.49861e-014 4.13472e-014
lhumerus -13.2837 -6.0946 87.8605
lradius 115.967
lwrist 35.2939
lhand -10.0988 35.7498
lfingers 7.12502
lthumb 15.8885 65.118
rfemur -31.496 -18.2869 41.7707
rtibia 57.0282
rfoot -32.9438 -8.685
rtoes -12.1525
lfemur -42.8489 6.99525 -9.04762
ltibia 112.277
lfoot -4.65682 6.05175
ltoes -22.2883
138
root -8.08813 14.0088 -6.37162 -169.803 66.4664 -193.451
lowerback 21.5757 6.66394 -2.18774
upperback 8.14434 8.8536 -1.37474
thorax -3.13222 4.63634 -2.34923
lowerneck 8.43368 -16.1172 -19.5535
upperneck -31.9918 -18.6842 30.4623
head -5.29762 -9.91444 14.3328
rclavicle 2.70347e-014 3.02153e-014
rhumerus -25.0867 -7.69786 -72.3573
rradius 55.8373
rwrist -27.6767
rhand -32.3269 37.6841
rfingers 7.12502
rthumb -5.56436 7.77714
lclavicle 2.70347e-014 3.02153e-014
lhumerus -14.978 -6.83599 89.3895
lradius 116.911
lwrist 38.1506
lhand -8.93352 36.3772
lfingers 7.12502
lthumb 17.0104 65.6524
rfemur -27.5516 -19.2318 40.5424
rtibia 54.1425
rfoot -31.9724 -7.15829
rtoes -15.6669
lfemur -45.8256 5.16845 -9.3563
ltibia 111.685
lfoot -5.20627 7.37257
ltoes -17.4698
139
root -7.5831 14.0648 -6.53737 -170.776 66.4912 -193.883
lowerback 21.7133 7.22122 -2.26405
upperback 8.10563 9.54762 -1.38717
thorax -3.23641 4.97345 -2.50948
lowerneck 9.00461 -16.6823 -20.15
upperneck -31.3587 -19.7323 31.3322
head -4.71126 -10.5767 14.5049
rclavicle -1.145e-013 6.99722e-014
rhumerus -26.4159 -8.07883 -72.6554
rradius 56.0947
rwrist -26.7218
rhand -31.7345 37.7454
rfingers 7.12502
rthumb -4.99235 7.82422
lclavicle -1.145e-013 6.99722e-014
lhumerus -16.6091 -7.67111 90.9907
lradius 117.621
lwrist 40.793
lhand -11.2875 37.1784
lfingers 7.12502
lthumb 14.7436 66.634
rfemur -22.9083 -19.941 38.9768
rtibia 51.1336
rfoot -31.05 -5.27187
rtoes -17.2997
lfemur -48.4491 3.31785 -9.86943
ltibia 110.663
lfoot -6.83146 8.51421
ltoes -18.2516
